<svg width="25" height="24" viewBox="0 0 25 24" fill="none" xmlns="http://www.w3.org/2000/svg">
<g clip-path="url(#clip0_11589_627)">
<path d="M23.1667 0H1.83333C1.09695 0 0.5 0.596954 0.5 1.33333V22.6667C0.5 23.403 1.09695 24 1.83333 24H23.1667C23.903 24 24.5 23.403 24.5 22.6667V1.33333C24.5 0.596954 23.903 0 23.1667 0Z" fill="#117EB8"/>
<path fill-rule="evenodd" clip-rule="evenodd" d="M4.87682 9.28301H8.08448V19.6037H4.87682V9.28301ZM6.48115 4.15268C7.50682 4.15268 8.34015 4.98601 8.34015 6.01168C8.34015 7.03834 7.50682 7.87201 6.48115 7.87201C6.23397 7.87669 5.98834 7.83205 5.75862 7.74069C5.52889 7.64934 5.31969 7.5131 5.14323 7.33995C4.96677 7.1668 4.8266 6.96021 4.73091 6.73226C4.63522 6.50431 4.58594 6.25957 4.58594 6.01234C4.58594 5.76512 4.63522 5.52038 4.73091 5.29243C4.8266 5.06447 4.96677 4.85788 5.14323 4.68473C5.31969 4.51158 5.52889 4.37535 5.75862 4.28399C5.98834 4.19264 6.23397 4.148 6.48115 4.15268ZM10.0965 9.28268H13.1731V10.693H13.2158C13.6441 9.88168 14.6905 9.02634 16.2508 9.02634C19.4988 9.02634 20.0988 11.164 20.0988 13.943V19.6037H16.8931V14.5847C16.8931 13.388 16.8711 11.8483 15.2265 11.8483C13.5575 11.8483 13.3011 13.152 13.3011 14.4983V19.6037H10.0961V9.28301L10.0965 9.28268Z" fill="white"/>
</g>
<defs>
<clipPath id="clip0_11589_627">
<rect x="0.5" width="24" height="24" rx="4" fill="white"/>
</clipPath>
</defs>
</svg>
